<mxfile host="app.diagrams.net" modified="2023-09-16T15:29:22.492Z" agent="Mozilla/5.0 (X11; Linux x86_64) AppleWebKit/537.36 (KHTML, like Gecko) Chrome/116.0.0.0 Safari/537.36" version="21.7.5" etag="JA6dVE1hzJZppxgMdxLy" type="github">
  <diagram name="Page-1" id="nVXVH24_6JPJPfBgUeSn">
    <mxGraphModel>
      <root>
        <mxCell id="0" />
        <mxCell id="1" parent="0" />
      </root>
    </mxGraphModel>
  </diagram>
</mxfile>
